<mxfile host="app.diagrams.net" agent="Mozilla/5.0 (Windows NT 10.0; Win64; x64) AppleWebKit/537.36 (KHTML, like Gecko) Chrome/131.0.0.0 Safari/537.36" version="25.0.3">
  <diagram name="Page-1" id="Ogleqi7adMMq3GzmIy2t">
    <mxGraphModel dx="1028" dy="622" grid="1" gridSize="10" guides="1" tooltips="1" connect="1" arrows="1" fold="1" page="1" pageScale="1" pageWidth="827" pageHeight="1169" math="0" shadow="0">
      <root>
        <mxCell id="0" />
        <mxCell id="1" parent="0" />
        <mxCell id="H987qlhF2QXHFoVBbVmw-17" value="" style="group" vertex="1" connectable="0" parent="1">
          <mxGeometry x="80" y="120" width="150" height="90" as="geometry" />
        </mxCell>
        <mxCell id="H987qlhF2QXHFoVBbVmw-15" value="a" style="rounded=0;whiteSpace=wrap;html=1;" vertex="1" parent="H987qlhF2QXHFoVBbVmw-17">
          <mxGeometry width="150" height="30" as="geometry" />
        </mxCell>
        <mxCell id="H987qlhF2QXHFoVBbVmw-16" value="data: 1&lt;div&gt;children: [e]&lt;/div&gt;&lt;div&gt;grad: 0&lt;/div&gt;&lt;div&gt;operation: None&lt;/div&gt;" style="rounded=0;whiteSpace=wrap;html=1;" vertex="1" parent="H987qlhF2QXHFoVBbVmw-17">
          <mxGeometry y="30" width="150" height="60" as="geometry" />
        </mxCell>
        <mxCell id="H987qlhF2QXHFoVBbVmw-19" value="" style="group" vertex="1" connectable="0" parent="1">
          <mxGeometry x="80" y="240" width="150" height="90" as="geometry" />
        </mxCell>
        <mxCell id="H987qlhF2QXHFoVBbVmw-20" value="b" style="rounded=0;whiteSpace=wrap;html=1;" vertex="1" parent="H987qlhF2QXHFoVBbVmw-19">
          <mxGeometry width="150" height="30" as="geometry" />
        </mxCell>
        <mxCell id="H987qlhF2QXHFoVBbVmw-21" value="data: 2&lt;div&gt;children: [e, f]&lt;/div&gt;&lt;div&gt;grad: 0&lt;/div&gt;&lt;div&gt;operation: None&lt;/div&gt;" style="rounded=0;whiteSpace=wrap;html=1;" vertex="1" parent="H987qlhF2QXHFoVBbVmw-19">
          <mxGeometry y="30" width="150" height="60" as="geometry" />
        </mxCell>
        <mxCell id="H987qlhF2QXHFoVBbVmw-22" value="" style="group" vertex="1" connectable="0" parent="1">
          <mxGeometry x="80" y="360" width="150" height="90" as="geometry" />
        </mxCell>
        <mxCell id="H987qlhF2QXHFoVBbVmw-23" value="c" style="rounded=0;whiteSpace=wrap;html=1;" vertex="1" parent="H987qlhF2QXHFoVBbVmw-22">
          <mxGeometry width="150" height="30" as="geometry" />
        </mxCell>
        <mxCell id="H987qlhF2QXHFoVBbVmw-24" value="data: 3&lt;div&gt;children: [f]&lt;/div&gt;&lt;div&gt;grad: 0&lt;/div&gt;&lt;div&gt;operation: None&lt;/div&gt;" style="rounded=0;whiteSpace=wrap;html=1;" vertex="1" parent="H987qlhF2QXHFoVBbVmw-22">
          <mxGeometry y="30" width="150" height="60" as="geometry" />
        </mxCell>
        <mxCell id="H987qlhF2QXHFoVBbVmw-25" value="" style="group" vertex="1" connectable="0" parent="1">
          <mxGeometry x="320" y="180" width="150" height="120" as="geometry" />
        </mxCell>
        <mxCell id="H987qlhF2QXHFoVBbVmw-26" value="d" style="rounded=0;whiteSpace=wrap;html=1;" vertex="1" parent="H987qlhF2QXHFoVBbVmw-25">
          <mxGeometry width="150" height="32.72727272727273" as="geometry" />
        </mxCell>
        <mxCell id="H987qlhF2QXHFoVBbVmw-27" value="data: 2&lt;div&gt;children: [y]&lt;/div&gt;&lt;div&gt;grad: 0&lt;/div&gt;&lt;div&gt;operation: Multiplication&amp;nbsp;&lt;/div&gt;" style="rounded=0;whiteSpace=wrap;html=1;" vertex="1" parent="H987qlhF2QXHFoVBbVmw-25">
          <mxGeometry y="30" width="150" height="60" as="geometry" />
        </mxCell>
        <mxCell id="H987qlhF2QXHFoVBbVmw-28" value="" style="group" vertex="1" connectable="0" parent="1">
          <mxGeometry x="320" y="310" width="150" height="100" as="geometry" />
        </mxCell>
        <mxCell id="H987qlhF2QXHFoVBbVmw-29" value="e" style="rounded=0;whiteSpace=wrap;html=1;" vertex="1" parent="H987qlhF2QXHFoVBbVmw-28">
          <mxGeometry width="150" height="30" as="geometry" />
        </mxCell>
        <mxCell id="H987qlhF2QXHFoVBbVmw-30" value="data: 6&lt;div&gt;children: [y]&lt;/div&gt;&lt;div&gt;grad: 0&lt;/div&gt;&lt;div&gt;operation: Multiplication&lt;/div&gt;" style="rounded=0;whiteSpace=wrap;html=1;" vertex="1" parent="H987qlhF2QXHFoVBbVmw-28">
          <mxGeometry y="30" width="150" height="60" as="geometry" />
        </mxCell>
        <mxCell id="H987qlhF2QXHFoVBbVmw-31" value="" style="endArrow=classic;html=1;rounded=0;exitX=1;exitY=0.5;exitDx=0;exitDy=0;entryX=0;entryY=0.5;entryDx=0;entryDy=0;" edge="1" parent="1" source="H987qlhF2QXHFoVBbVmw-16" target="H987qlhF2QXHFoVBbVmw-27">
          <mxGeometry width="50" height="50" relative="1" as="geometry">
            <mxPoint x="350" y="300" as="sourcePoint" />
            <mxPoint x="400" y="250" as="targetPoint" />
            <Array as="points">
              <mxPoint x="260" y="180" />
              <mxPoint x="260" y="240" />
            </Array>
          </mxGeometry>
        </mxCell>
        <mxCell id="H987qlhF2QXHFoVBbVmw-32" value="" style="endArrow=classic;html=1;rounded=0;exitX=1;exitY=0.5;exitDx=0;exitDy=0;entryX=0;entryY=0.5;entryDx=0;entryDy=0;" edge="1" parent="1" source="H987qlhF2QXHFoVBbVmw-21" target="H987qlhF2QXHFoVBbVmw-27">
          <mxGeometry width="50" height="50" relative="1" as="geometry">
            <mxPoint x="240" y="190" as="sourcePoint" />
            <mxPoint x="280" y="280" as="targetPoint" />
            <Array as="points">
              <mxPoint x="260" y="300" />
              <mxPoint x="260" y="240" />
            </Array>
          </mxGeometry>
        </mxCell>
        <mxCell id="H987qlhF2QXHFoVBbVmw-33" value="" style="endArrow=classic;html=1;rounded=0;exitX=1;exitY=0.5;exitDx=0;exitDy=0;entryX=0;entryY=0.5;entryDx=0;entryDy=0;" edge="1" parent="1">
          <mxGeometry width="50" height="50" relative="1" as="geometry">
            <mxPoint x="230" y="300" as="sourcePoint" />
            <mxPoint x="320" y="360" as="targetPoint" />
            <Array as="points">
              <mxPoint x="260" y="300" />
              <mxPoint x="260" y="360" />
            </Array>
          </mxGeometry>
        </mxCell>
        <mxCell id="H987qlhF2QXHFoVBbVmw-34" value="" style="endArrow=classic;html=1;rounded=0;exitX=1;exitY=0.5;exitDx=0;exitDy=0;entryX=0;entryY=0.5;entryDx=0;entryDy=0;" edge="1" parent="1">
          <mxGeometry width="50" height="50" relative="1" as="geometry">
            <mxPoint x="230" y="420" as="sourcePoint" />
            <mxPoint x="320" y="360" as="targetPoint" />
            <Array as="points">
              <mxPoint x="260" y="420" />
              <mxPoint x="260" y="360" />
            </Array>
          </mxGeometry>
        </mxCell>
        <mxCell id="H987qlhF2QXHFoVBbVmw-35" value="&lt;font style=&quot;font-size: 19px;&quot;&gt;*&lt;/font&gt;" style="ellipse;whiteSpace=wrap;html=1;aspect=fixed;" vertex="1" parent="1">
          <mxGeometry x="246" y="345" width="30" height="30" as="geometry" />
        </mxCell>
        <mxCell id="H987qlhF2QXHFoVBbVmw-37" value="&lt;font style=&quot;font-size: 19px;&quot;&gt;*&lt;/font&gt;" style="ellipse;whiteSpace=wrap;html=1;aspect=fixed;" vertex="1" parent="1">
          <mxGeometry x="247" y="228" width="30" height="30" as="geometry" />
        </mxCell>
        <mxCell id="H987qlhF2QXHFoVBbVmw-38" value="" style="endArrow=classic;html=1;rounded=0;exitX=1;exitY=0.5;exitDx=0;exitDy=0;entryX=0;entryY=0.5;entryDx=0;entryDy=0;" edge="1" parent="1">
          <mxGeometry width="50" height="50" relative="1" as="geometry">
            <mxPoint x="470" y="240" as="sourcePoint" />
            <mxPoint x="560" y="300" as="targetPoint" />
            <Array as="points">
              <mxPoint x="500" y="240" />
              <mxPoint x="500" y="300" />
            </Array>
          </mxGeometry>
        </mxCell>
        <mxCell id="H987qlhF2QXHFoVBbVmw-39" value="" style="endArrow=classic;html=1;rounded=0;exitX=1;exitY=0.5;exitDx=0;exitDy=0;entryX=0;entryY=0.5;entryDx=0;entryDy=0;" edge="1" parent="1">
          <mxGeometry width="50" height="50" relative="1" as="geometry">
            <mxPoint x="470" y="360" as="sourcePoint" />
            <mxPoint x="560" y="300" as="targetPoint" />
            <Array as="points">
              <mxPoint x="500" y="360" />
              <mxPoint x="500" y="300" />
            </Array>
          </mxGeometry>
        </mxCell>
        <mxCell id="H987qlhF2QXHFoVBbVmw-40" value="" style="group" vertex="1" connectable="0" parent="1">
          <mxGeometry x="560" y="250" width="150" height="100" as="geometry" />
        </mxCell>
        <mxCell id="H987qlhF2QXHFoVBbVmw-41" value="y" style="rounded=0;whiteSpace=wrap;html=1;" vertex="1" parent="H987qlhF2QXHFoVBbVmw-40">
          <mxGeometry width="150" height="30" as="geometry" />
        </mxCell>
        <mxCell id="H987qlhF2QXHFoVBbVmw-42" value="data: 12&lt;div&gt;children: []&lt;/div&gt;&lt;div&gt;grad: 0&lt;/div&gt;&lt;div&gt;operation: Multiplication&lt;/div&gt;" style="rounded=0;whiteSpace=wrap;html=1;" vertex="1" parent="H987qlhF2QXHFoVBbVmw-40">
          <mxGeometry y="30" width="150" height="60" as="geometry" />
        </mxCell>
        <mxCell id="H987qlhF2QXHFoVBbVmw-44" value="&lt;font style=&quot;font-size: 19px;&quot;&gt;*&lt;/font&gt;" style="ellipse;whiteSpace=wrap;html=1;aspect=fixed;" vertex="1" parent="1">
          <mxGeometry x="485" y="284" width="30" height="30" as="geometry" />
        </mxCell>
      </root>
    </mxGraphModel>
  </diagram>
</mxfile>
